<svg width="45" height="41" viewBox="0 0 45 41" fill="none" xmlns="http://www.w3.org/2000/svg">
<path d="M43.5 20.5C43.5 30.5561 34.269 39 22.5 39C10.731 39 1.5 30.5561 1.5 20.5C1.5 10.4439 10.731 2 22.5 2C34.269 2 43.5 10.4439 43.5 20.5Z" stroke="white" stroke-width="3"/>
<path d="M6.80546 19.4393C6.21967 20.0251 6.21967 20.9749 6.80546 21.5607L16.3514 31.1066C16.9372 31.6924 17.8869 31.6924 18.4727 31.1066C19.0585 30.5208 19.0585 29.5711 18.4727 28.9853L9.98744 20.5L18.4727 12.0147C19.0585 11.4289 19.0585 10.4792 18.4727 9.8934C17.8869 9.30761 16.9372 9.30761 16.3514 9.8934L6.80546 19.4393ZM37.8 19H7.86612V22H37.8V19Z" fill="white"/>
</svg>
