<svg width="42" height="43" viewBox="0 0 42 43" fill="none" xmlns="http://www.w3.org/2000/svg">
<path fill-rule="evenodd" clip-rule="evenodd" d="M21 40.3999C31.438 40.3999 39.9 31.938 39.9 21.5C39.9 11.0619 31.438 2.6 21 2.6C10.5619 2.6 2.1 11.0619 2.1 21.5C2.1 31.938 10.5619 40.3999 21 40.3999ZM21 42.4999C32.5983 42.4999 42 33.0982 42 21.5C42 9.90168 32.5983 0.5 21 0.5C9.4017 0.5 0 9.90168 0 21.5C0 33.0982 9.4017 42.4999 21 42.4999Z" fill="white"/>
<path d="M8.39996 33.7115C8.39996 32.6268 9.21056 31.7102 10.29 31.5905C18.3907 30.6938 23.646 30.7746 31.7289 31.6104C32.1325 31.6528 32.515 31.8118 32.8298 32.068C33.1445 32.3242 33.3779 32.6666 33.5012 33.0532C33.6246 33.4399 33.6327 33.8541 33.5246 34.2453C33.4165 34.6364 33.1967 34.9876 32.8923 35.256C23.353 43.5709 17.9014 43.4565 9.07196 35.2644C8.64146 34.8654 8.39996 34.2974 8.39996 33.7115Z" fill="white"/>
<path fill-rule="evenodd" clip-rule="evenodd" d="M31.6208 32.6541C23.6019 31.8246 18.4223 31.7469 10.4045 32.6341C10.1406 32.6649 9.89726 32.7919 9.72115 32.9909C9.54505 33.1898 9.44852 33.4468 9.45004 33.7125C9.45004 34.0128 9.57499 34.2973 9.78604 34.4947C14.1624 38.554 17.4783 40.3884 20.7197 40.3999C23.9726 40.4115 27.467 38.5918 32.2025 34.4653C32.3529 34.3314 32.4612 34.1567 32.5142 33.9624C32.5672 33.7681 32.5626 33.5626 32.501 33.3708C32.4394 33.1791 32.3234 33.0094 32.1672 32.8823C32.0109 32.7553 31.8211 32.6753 31.6208 32.6541ZM10.1745 30.5467C18.3603 29.6406 23.6922 29.7225 31.8381 30.5656C32.4454 30.629 33.0209 30.8681 33.4944 31.2535C33.9678 31.639 34.3186 32.1541 34.5038 32.7359C34.689 33.3176 34.7005 33.9407 34.537 34.5289C34.3735 35.1172 34.0421 35.6449 33.5832 36.0477C28.7795 40.2351 24.779 42.5157 20.7134 42.4999C16.6362 42.4852 12.8121 40.1658 8.35909 36.034C8.04026 35.7371 7.7861 35.3775 7.61248 34.9779C7.43887 34.5783 7.34952 34.1471 7.35004 33.7114C7.34851 32.9286 7.63586 32.1727 8.15704 31.5885C8.67821 31.0044 9.39658 30.6341 10.1745 30.5467Z" fill="white"/>
<path d="M29.4 17.3C29.4 19.5278 28.515 21.6644 26.9397 23.2397C25.3644 24.815 23.2279 25.7 21 25.7C18.7722 25.7 16.6356 24.815 15.0603 23.2397C13.485 21.6644 12.6 19.5278 12.6 17.3C12.6 15.0722 13.485 12.9356 15.0603 11.3603C16.6356 9.78502 18.7722 8.90002 21 8.90002C23.2279 8.90002 25.3644 9.78502 26.9397 11.3603C28.515 12.9356 29.4 15.0722 29.4 17.3Z" fill="white"/>
<path fill-rule="evenodd" clip-rule="evenodd" d="M21 23.6C22.6709 23.6 24.2733 22.9363 25.4548 21.7548C26.6363 20.5733 27.3 18.9709 27.3 17.3C27.3 15.6291 26.6363 14.0267 25.4548 12.8452C24.2733 11.6638 22.6709 11 21 11C19.3292 11 17.7267 11.6638 16.5453 12.8452C15.3638 14.0267 14.7 15.6291 14.7 17.3C14.7 18.9709 15.3638 20.5733 16.5453 21.7548C17.7267 22.9363 19.3292 23.6 21 23.6ZM21 25.7C23.2279 25.7 25.3644 24.815 26.9397 23.2397C28.515 21.6644 29.4 19.5278 29.4 17.3C29.4 15.0722 28.515 12.9356 26.9397 11.3603C25.3644 9.78502 23.2279 8.90002 21 8.90002C18.7722 8.90002 16.6356 9.78502 15.0603 11.3603C13.485 12.9356 12.6 15.0722 12.6 17.3C12.6 19.5278 13.485 21.6644 15.0603 23.2397C16.6356 24.815 18.7722 25.7 21 25.7Z" fill="white"/>
</svg>
