<svg width="42" height="43" viewBox="0 0 42 43" fill="none" xmlns="http://www.w3.org/2000/svg">
<path fill-rule="evenodd" clip-rule="evenodd" d="M21 40.3999C31.438 40.3999 39.9 31.938 39.9 21.5C39.9 11.0619 31.438 2.6 21 2.6C10.5619 2.6 2.1 11.0619 2.1 21.5C2.1 31.938 10.5619 40.3999 21 40.3999ZM21 42.4999C32.5983 42.4999 42 33.0982 42 21.5C42 9.90168 32.5983 0.5 21 0.5C9.4017 0.5 0 9.90168 0 21.5C0 33.0982 9.4017 42.4999 21 42.4999Z" fill="white"/>
<path d="M8.40002 33.7115C8.40002 32.6268 9.21062 31.7102 10.29 31.5905C18.3908 30.6938 23.646 30.7746 31.7289 31.6104C32.1326 31.6528 32.5151 31.8118 32.8299 32.068C33.1446 32.3242 33.3779 32.6666 33.5013 33.0532C33.6247 33.4399 33.6328 33.8541 33.5247 34.2453C33.4165 34.6364 33.1968 34.9876 32.8923 35.256C23.3531 43.5709 17.9015 43.4565 9.07202 35.2644C8.64152 34.8654 8.40002 34.2974 8.40002 33.7115Z" fill="white"/>
<path fill-rule="evenodd" clip-rule="evenodd" d="M31.6207 32.6541C23.6019 31.8246 18.4222 31.7469 10.4044 32.6341C10.1405 32.6649 9.8972 32.7919 9.72109 32.9909C9.54499 33.1898 9.44845 33.4468 9.44998 33.7125C9.44998 34.0128 9.57493 34.2973 9.78598 34.4947C14.1624 38.554 17.4783 40.3884 20.7196 40.3999C23.9725 40.4115 27.4669 38.5918 32.2024 34.4653C32.3529 34.3314 32.4612 34.1567 32.5142 33.9624C32.5672 33.7681 32.5626 33.5626 32.501 33.3708C32.4394 33.1791 32.3234 33.0094 32.1671 32.8823C32.0108 32.7553 31.821 32.6753 31.6207 32.6541ZM10.1745 30.5467C18.3603 29.6406 23.6922 29.7225 31.8381 30.5656C32.4453 30.629 33.0209 30.8681 33.4943 31.2535C33.9678 31.639 34.3185 32.1541 34.5037 32.7359C34.6889 33.3176 34.7005 33.9407 34.537 34.5289C34.3735 35.1172 34.042 35.6449 33.5832 36.0477C28.7794 40.2351 24.7789 42.5157 20.7133 42.4999C16.6362 42.4852 12.8121 40.1658 8.35903 36.034C8.0402 35.7371 7.78604 35.3775 7.61242 34.9779C7.4388 34.5783 7.34946 34.1471 7.34998 33.7114C7.34845 32.9286 7.6358 32.1727 8.15697 31.5885C8.67815 31.0044 9.39652 30.6341 10.1745 30.5467Z" fill="white"/>
<path d="M29.4 17.2999C29.4 19.5277 28.515 21.6643 26.9397 23.2396C25.3644 24.8149 23.2278 25.6999 21 25.6999C18.7722 25.6999 16.6356 24.8149 15.0603 23.2396C13.485 21.6643 12.6 19.5277 12.6 17.2999C12.6 15.0721 13.485 12.9355 15.0603 11.3602C16.6356 9.7849 18.7722 8.8999 21 8.8999C23.2278 8.8999 25.3644 9.7849 26.9397 11.3602C28.515 12.9355 29.4 15.0721 29.4 17.2999Z" fill="white"/>
<path fill-rule="evenodd" clip-rule="evenodd" d="M21 23.5999C22.6708 23.5999 24.2733 22.9361 25.4547 21.7547C26.6362 20.5732 27.3 18.9707 27.3 17.2999C27.3 15.629 26.6362 14.0266 25.4547 12.8451C24.2733 11.6636 22.6708 10.9999 21 10.9999C19.3291 10.9999 17.7267 11.6636 16.5452 12.8451C15.3637 14.0266 14.7 15.629 14.7 17.2999C14.7 18.9707 15.3637 20.5732 16.5452 21.7547C17.7267 22.9361 19.3291 23.5999 21 23.5999ZM21 25.6999C23.2278 25.6999 25.3644 24.8149 26.9397 23.2396C28.515 21.6643 29.4 19.5277 29.4 17.2999C29.4 15.0721 28.515 12.9355 26.9397 11.3602C25.3644 9.7849 23.2278 8.8999 21 8.8999C18.7722 8.8999 16.6356 9.7849 15.0603 11.3602C13.485 12.9355 12.6 15.0721 12.6 17.2999C12.6 19.5277 13.485 21.6643 15.0603 23.2396C16.6356 24.8149 18.7722 25.6999 21 25.6999Z" fill="white"/>
</svg>
