<svg width="42" height="43" viewBox="0 0 42 43" fill="none" xmlns="http://www.w3.org/2000/svg">
<path fill-rule="evenodd" clip-rule="evenodd" d="M21 40.3999C31.438 40.3999 39.9 31.938 39.9 21.5C39.9 11.0619 31.438 2.6 21 2.6C10.5619 2.6 2.1 11.0619 2.1 21.5C2.1 31.938 10.5619 40.3999 21 40.3999ZM21 42.4999C32.5983 42.4999 42 33.0982 42 21.5C42 9.90168 32.5983 0.5 21 0.5C9.4017 0.5 0 9.90168 0 21.5C0 33.0982 9.4017 42.4999 21 42.4999Z" fill="white"/>
<path d="M8.3999 33.7115C8.3999 32.6268 9.2105 31.7102 10.2899 31.5905C18.3907 30.6938 23.6459 30.7746 31.7288 31.6104C32.1324 31.6528 32.515 31.8118 32.8297 32.068C33.1445 32.3242 33.3778 32.6666 33.5012 33.0532C33.6246 33.4399 33.6327 33.8541 33.5245 34.2453C33.4164 34.6364 33.1967 34.9876 32.8922 35.256C23.353 43.5709 17.9014 43.4565 9.0719 35.2644C8.6414 34.8654 8.3999 34.2974 8.3999 33.7115Z" fill="white"/>
<path fill-rule="evenodd" clip-rule="evenodd" d="M31.6209 32.6541C23.602 31.8246 18.4224 31.7469 10.4046 32.6341C10.1406 32.6649 9.89732 32.7919 9.72121 32.9909C9.54511 33.1898 9.44858 33.4468 9.4501 33.7125C9.4501 34.0128 9.57505 34.2973 9.7861 34.4947C14.1625 38.554 17.4784 40.3884 20.7198 40.3999C23.9727 40.4115 27.4671 38.5918 32.2026 34.4653C32.353 34.3314 32.4613 34.1567 32.5143 33.9624C32.5673 33.7681 32.5627 33.5626 32.5011 33.3708C32.4395 33.1791 32.3235 33.0094 32.1672 32.8823C32.0109 32.7553 31.8211 32.6753 31.6209 32.6541ZM10.1746 30.5467C18.3604 29.6406 23.6923 29.7225 31.8382 30.5656C32.4454 30.629 33.021 30.8681 33.4944 31.2535C33.9679 31.639 34.3187 32.1541 34.5039 32.7359C34.689 33.3176 34.7006 33.9407 34.5371 34.5289C34.3736 35.1172 34.0421 35.6449 33.5833 36.0477C28.7796 40.2351 24.7791 42.5157 20.7135 42.4999C16.6363 42.4852 12.8122 40.1658 8.35915 36.034C8.04032 35.7371 7.78616 35.3775 7.61254 34.9779C7.43893 34.5783 7.34959 34.1471 7.3501 33.7114C7.34857 32.9286 7.63592 32.1727 8.1571 31.5885C8.67827 31.0044 9.39665 30.6341 10.1746 30.5467Z" fill="white"/>
<path d="M29.4001 17.3C29.4001 19.5278 28.5151 21.6644 26.9398 23.2397C25.3645 24.815 23.2279 25.7 21.0001 25.7C18.7723 25.7 16.6357 24.815 15.0604 23.2397C13.4851 21.6644 12.6001 19.5278 12.6001 17.3C12.6001 15.0722 13.4851 12.9356 15.0604 11.3603C16.6357 9.78502 18.7723 8.90002 21.0001 8.90002C23.2279 8.90002 25.3645 9.78502 26.9398 11.3603C28.5151 12.9356 29.4001 15.0722 29.4001 17.3Z" fill="white"/>
<path fill-rule="evenodd" clip-rule="evenodd" d="M21.0001 23.6C22.671 23.6 24.2734 22.9363 25.4549 21.7548C26.6363 20.5733 27.3001 18.9709 27.3001 17.3C27.3001 15.6291 26.6363 14.0267 25.4549 12.8452C24.2734 11.6638 22.671 11 21.0001 11C19.3292 11 17.7268 11.6638 16.5453 12.8452C15.3638 14.0267 14.7001 15.6291 14.7001 17.3C14.7001 18.9709 15.3638 20.5733 16.5453 21.7548C17.7268 22.9363 19.3292 23.6 21.0001 23.6ZM21.0001 25.7C23.2279 25.7 25.3645 24.815 26.9398 23.2397C28.5151 21.6644 29.4001 19.5278 29.4001 17.3C29.4001 15.0722 28.5151 12.9356 26.9398 11.3603C25.3645 9.78502 23.2279 8.90002 21.0001 8.90002C18.7723 8.90002 16.6357 9.78502 15.0604 11.3603C13.4851 12.9356 12.6001 15.0722 12.6001 17.3C12.6001 19.5278 13.4851 21.6644 15.0604 23.2397C16.6357 24.815 18.7723 25.7 21.0001 25.7Z" fill="white"/>
</svg>
